<svg id="_ÎÓÈ_1" data-name=" ÎÓÈ 1" xmlns="http://www.w3.org/2000/svg" viewBox="0 0 449.58 400"><defs><style>.cls-1{fill:#ff2c9c;}.cls-2{fill:#d4ecff;}.cls-3{fill:#396caa;}.cls-4{fill:#5793ce;}.cls-5{fill:#c4d9e8;}.cls-6{fill:#173d7a;}.cls-7{fill:#fff;}.cls-8{fill:#d3d0cf;}.cls-9{fill:#f2f2f2;}.cls-10{fill:#ffc2b0;}.cls-11{fill:#ea9c92;}.cls-12{fill:#274f89;}.cls-13{fill:#d3008d;}</style></defs><path class="cls-1" d="M0,0V64.8a21.76,21.76,0,0,0,20.89,3.08L56.71,54.41A21.79,21.79,0,0,0,69.38,41.7L82.85,5.88A22.05,22.05,0,0,0,84.21,0Z" transform="translate(0 0)"/><path class="cls-2" d="M449.58,301.4l-50.86,41c-5.66,4.56-7.42,14.22-3.92,21.6l17.08,36h37.7Z" transform="translate(0 0)"/><path class="cls-3" d="M62.45,347.71a13.69,13.69,0,0,0-9.76-9.59l-28.94-7.46a13.69,13.69,0,0,0-13.21,3.71L0,345.08V400H57l10-10.21a13.73,13.73,0,0,0,3.46-13.28Z" transform="translate(0 0)"/><rect class="cls-4" x="313.64" y="274.26" width="3.92" height="1.35" transform="translate(-58.39 86.99) rotate(-14.38)"/><rect class="cls-4" x="311.68" y="276.14" width="3.92" height="1.35" transform="translate(-58.89 86.5) rotate(-14.37)"/><rect class="cls-4" x="309.74" y="278.02" width="3.92" height="1.35" transform="translate(-59.42 86.08) rotate(-14.37)"/><rect class="cls-4" x="307.84" y="279.93" width="3.92" height="1.35" transform="translate(-59.98 85.73) rotate(-14.38)"/><path class="cls-5" d="M233.67,157.28l-35.61,20.89c-9-2.77-20.53-1.91-28.12,2.54-9.24,5.42-9.19,14.13.13,19.39a28.55,28.55,0,0,0,7,2.75,37.49,37.49,0,0,0,5.57,1c7.41.71,15.31-.6,21-3.94,6.9-4.05,8.61-9.89,5.15-14.84l4.91-2.88-.14-3.12h5.18l-.14-2.93,5.17,0-.12-2.92h5.16l-.12-2.93h5.17l-.13-2.92,5.52,0,1.68-1,1.86-7.67Zm-50.11,40a9.67,9.67,0,0,1-8.75.07c-2.42-1.38-2.44-3.63,0-5a9.67,9.67,0,0,1,8.75-.06C186,193.59,186,195.85,183.56,197.25Z" transform="translate(0 0)"/><path class="cls-5" d="M253.13,289.46l-48.06-27.62c-3.23-1.86-2.82-5.13.91-7.28l46.64-26.92c3.74-2.12,9.39-2.39,12.62-.52l48.06,27.61c3.24,1.87,2.83,5.13-.9,7.29l-46.65,26.92C262,291.09,256.4,291.33,253.13,289.46Z" transform="translate(0 0)"/><path class="cls-4" d="M309.47,226.84l-8.28-4.79,30.62-17.67c1.41-.84,1.41-2.19,0-3l-31.33-18.07a5.82,5.82,0,0,0-5.24,0L264.61,201l-8.3-4.8,30.62-17.67c6-3.47,15.83-3.47,21.85,0l31.28,18.06c6,3.48,6,9.14,0,12.62Z" transform="translate(0 0)"/><path class="cls-2" d="M322.87,229c0-4.44-2.69-9.59-6-11.51l-55.47-32a3.88,3.88,0,0,0-3.91-.34h0l-66.23,38.49,64,48.27L320.5,234a3,3,0,0,0,.58-.33h0C322.2,232.8,322.87,231.17,322.87,229Z" transform="translate(0 0)"/><path class="cls-6" d="M255.25,271.83,320.5,234a3,3,0,0,0,.58-.33h0c1.09-.83,1.76-2.45,1.76-4.67a14.77,14.77,0,0,0-1.62-6.41l-74.36,43Z" transform="translate(0 0)"/><path class="cls-4" d="M251.11,271.67l-55.48-32c-3.33-1.92-6-7.07-6-11.52h0c0-4.44,2.7-6.48,6-4.56l55.48,32c3.33,1.92,6,7.07,6,11.52h0C257.14,271.54,254.44,273.57,251.11,271.67Z" transform="translate(0 0)"/><path class="cls-7" d="M242.8,260.85,236.13,257a2.89,2.89,0,0,1-1.2-2.3h0c0-.88.53-1.29,1.2-.91l6.67,3.85A2.87,2.87,0,0,1,244,260h0C244,260.83,243.46,261.23,242.8,260.85Z" transform="translate(0 0)"/><polygon class="cls-3" points="192.72 148.07 204.12 154.54 215.75 147.72 215.72 144.75 215.62 144.81 215.6 144.6 220.78 144.56 220.75 141.64 225.82 141.61 225.79 138.68 230.86 138.65 230.83 135.73 235.9 135.69 235.87 132.77 241.29 132.73 242.98 131.74 244.84 124.07 244.81 121.11 243.91 123.95 235.7 122.85 192.72 148.07"/><polygon class="cls-2" points="204.08 151.57 215.72 144.75 215.57 141.64 220.75 141.59 220.61 138.68 225.79 138.64 225.66 135.72 230.83 135.68 230.7 132.76 235.87 132.72 235.74 129.8 241.26 129.76 242.95 128.77 244.81 121.11 235.67 119.88 192.69 145.1 204.08 151.57"/><path class="cls-3" d="M211.83,147a16,16,0,0,0-5.29-4.56,27.2,27.2,0,0,0-5.45-2.31l-8.41,5,11.4,6.48Z" transform="translate(0 0)"/><polygon class="cls-4" points="244.49 122.39 244.81 121.11 243.27 120.9 206.95 142.21 208.87 143.29 244.49 122.39"/><polygon class="cls-8" points="165.17 157.43 165.04 153.21 166.4 156.06 165.17 157.43"/><path class="cls-3" d="M172.19,166.93c9.31,5.29,24.35,5.18,33.59-.24,4.63-2.71,6.92-6.26,6.88-9.77h0l-.12-4.48-.77.85a14.38,14.38,0,0,0-6.13-6c-9.31-5.3-24.35-5.19-33.58.23S162.88,161.64,172.19,166.93ZM185.62,159c2.42,1.37,2.44,3.63,0,5a9.67,9.67,0,0,1-8.75.07c-2.42-1.38-2.43-3.64,0-5.06a9.67,9.67,0,0,1,8.78-.05Z" transform="translate(0 0)"/><path class="cls-9" d="M172.07,162.71c9.31,5.29,24.35,5.18,33.58-.23s9.19-14.14-.13-19.4-24.35-5.18-33.59.24S162.76,157.42,172.07,162.71Zm13.43-7.89c2.42,1.37,2.44,3.64,0,5a9.65,9.65,0,0,1-8.74.07c-2.43-1.38-2.45-3.64,0-5.05a9.63,9.63,0,0,1,8.76-.06Z" transform="translate(0 0)"/><path class="cls-4" d="M182.86,165a9.64,9.64,0,0,1-5.93-.87c-1.74-1-2.22-2.44-1.48-3.69l-4.24-3.35-4.39-4.94c-3.39,4.94-1.61,10.81,5.35,14.77a29.41,29.41,0,0,0,10.42,3.3Z" transform="translate(0 0)"/><path class="cls-2" d="M172.07,162.71a28.48,28.48,0,0,0,7,2.75,37.72,37.72,0,0,0,5.57,1c7.41.71,15.32-.6,21-3.94,9.24-5.42,9.19-14.14-.13-19.4s-24.35-5.18-33.59.24S162.76,157.42,172.07,162.71Zm13.43-7.89c2.42,1.37,2.44,3.64,0,5a9.65,9.65,0,0,1-8.74.07c-2.43-1.38-2.45-3.64,0-5.05a9.63,9.63,0,0,1,8.76-.06Z" transform="translate(0 0)"/><path class="cls-3" d="M167.67,153.1c.45-2.7,2.46-5.34,6-7.44,8.22-4.82,21.6-4.94,29.89-.2,4.11,2.33,6.19,5.42,6.24,8.52.59-3.53-1.46-7.15-6.15-9.81-8.29-4.71-21.66-4.62-29.88.21C169.65,146.8,167.62,150,167.67,153.1Z" transform="translate(0 0)"/><path class="cls-3" d="M162.06,191.48a9.24,9.24,0,0,1-4.65-1.2c-3.34-1.89-5.2-5.7-5.23-10.71-.07-9.16,6.3-20.37,14.19-25,4.33-2.54,8.55-2.89,11.88-1a9.34,9.34,0,0,1,3.46,3.46,14.36,14.36,0,0,1,1.77,7.26c.07,9.15-6.3,20.36-14.19,25A14.48,14.48,0,0,1,162.06,191.48Zm11.53-35.71a11.11,11.11,0,0,0-5.51,1.73c-7,4.09-12.6,14-12.55,22.07,0,3.77,1.28,6.55,3.54,7.83s5.27.93,8.48-1c7-4.08,12.6-14,12.54-22.07a11.21,11.21,0,0,0-1.31-5.59h0a5.84,5.84,0,0,0-5.23-3Z" transform="translate(0 0)"/><path class="cls-2" d="M178,163.16l6.63,1.62,1-4.95a9.65,9.65,0,0,1-8.74.07Z" transform="translate(0 0)"/><path class="cls-2" d="M172.07,162.71a28.48,28.48,0,0,0,7,2.75,37.72,37.72,0,0,0,5.57,1c7.41.71,15.32-.6,21-3.94l-27-.61Z" transform="translate(0 0)"/><path class="cls-3" d="M182,166.12a39.41,39.41,0,0,1-5.86-1.52v4.15a33,33,0,0,0,5.79,1.49C188.15,171.05,182,166.12,182,166.12Z" transform="translate(0 0)"/><path class="cls-4" d="M177.74,165.11a27.38,27.38,0,0,1-3.82-1.42c-3.62-1.69,1,4.58,1,4.58s1.23.48,2.82,1Z" transform="translate(0 0)"/><polygon class="cls-4" points="245.47 237.88 233.65 245.5 227.91 244.57 241.95 237.78 245.47 237.88"/><path class="cls-6" d="M231.22,276.35s-3.4-1.72-5.49.84-5.11,8.62-5.21,12.66,3.23,3.8,5.2,2.83,7.74-9.33,8.09-11a5.73,5.73,0,0,0-1-4.29C232.29,277,231.22,276.35,231.22,276.35Z" transform="translate(0 0)"/><path class="cls-4" d="M231.93,275.53l.15,3.53a2,2,0,0,1-1,1.83,3.86,3.86,0,0,1-2.62.41c-2.57-.41-2.8-1.14-3-4.67S231.93,275.53,231.93,275.53Z" transform="translate(0 0)"/><path class="cls-6" d="M218.73,269.55s-3.4-1.72-5.49.84-5.08,8.58-5.17,12.66,3.22,3.8,5.19,2.83,7.74-9.26,8.07-10.93a5.76,5.76,0,0,0-1-4.29C219.8,270.22,218.73,269.55,218.73,269.55Z" transform="translate(0 0)"/><path class="cls-4" d="M219.48,268.75l.15,3.54a2,2,0,0,1-1,1.83,3.88,3.88,0,0,1-2.63.41c-2.56-.41-2.79-1.14-3-4.67S219.48,268.75,219.48,268.75Z" transform="translate(0 0)"/><path class="cls-2" d="M249.84,204c-1-16.39-17.75,2.41-17.75,2.41l-11.47,11.23L210.3,229a10.18,10.18,0,0,0-2.56,8.17l4.17,31.8a3.11,3.11,0,0,0,3.14,2.71,10,10,0,0,0,1.54-.13,3.89,3.89,0,0,0,3.47-4.1l-.77-29.72L241,224.65S250.84,220.41,249.84,204Z" transform="translate(0 0)"/><path class="cls-4" d="M227.57,232.1,224.49,231c-.07,0-5.25,5-5.2,6.74l2.32.75,5.82-5.66Z" transform="translate(0 0)"/><path class="cls-4" d="M245.47,237.88s12.88-7.35,14.42-10.43c.6-1.21,1.54-2.47-2.22-4.29L240.5,235.4l.74,4.24Z" transform="translate(0 0)"/><path class="cls-2" d="M262.32,210.36c-1.08-16.38-17.75,2.41-17.75,2.41L233.12,224,222.8,235.3a10.16,10.16,0,0,0-2.56,8.17l4.17,31.81a3.13,3.13,0,0,0,3.13,2.72,11.45,11.45,0,0,0,1.55-.14,3.89,3.89,0,0,0,3.45-4.12L231.77,244,253.44,231S263.27,225.33,262.32,210.36Z" transform="translate(0 0)"/><path class="cls-4" d="M252.42,157.67c12.72,5.27,12.44,12.76,12.44,12.76s-2.49,27.51-1.64,45.88c.36,7.67-40.79,8.26-34.63-12.23,7.24-24.15,4.53-43.7,7.91-46.64S249.11,156.31,252.42,157.67Z" transform="translate(0 0)"/><path class="cls-10" d="M256.47,164.33c-.66,2.57-4,3.93-7.54,3s-5.8-3.72-5.14-6.3,4.05-3.93,7.55-3S257.14,161.75,256.47,164.33Z" transform="translate(0 0)"/><path class="cls-7" d="M251.07,168.24a9.33,9.33,0,0,1-2.29-.29,8.43,8.43,0,0,1-4.45-2.73,4.84,4.84,0,0,1-1.12-4.31c.7-2.9,4.46-4.45,8.27-3.47a8.4,8.4,0,0,1,4.46,2.73,4.87,4.87,0,0,1,1.12,4.31C256.47,166.78,254,168.24,251.07,168.24Zm-1.9-9.89c-2.36,0-4.34,1.1-4.79,2.83a3.69,3.69,0,0,0,.89,3.24,7.35,7.35,0,0,0,3.81,2.32c3.17.81,6.23-.35,6.81-2.6a3.72,3.72,0,0,0-.89-3.25,7.3,7.3,0,0,0-3.82-2.31,8,8,0,0,0-2-.22Z" transform="translate(0 0)"/><path class="cls-10" d="M247.3,157.1a31.18,31.18,0,0,1-.11,4.53c-.07,1.26,4.36,2.44,5.5,1.31s.71-2.34,1-6.65S247.3,157.1,247.3,157.1Z" transform="translate(0 0)"/><path class="cls-11" d="M253.65,156.29s-1.09,4-6.46,5.52l.08-3.62Z" transform="translate(0 0)"/><path class="cls-10" d="M257.06,146.16a9.77,9.77,0,1,1-11.91-7,9.77,9.77,0,0,1,11.91,7Z" transform="translate(0 0)"/><path class="cls-11" d="M249.84,149s-5.37,2.31-9.1,2.34-2.9-3.1-2.9-3.1l11-1.62Z" transform="translate(0 0)"/><path class="cls-1" d="M239.63,149.57s4.69-2,8.79-1.16a4.26,4.26,0,0,1,2.49,1.48,1.45,1.45,0,0,0,.75.54c.71.17,1.92-2.82,3.34-2.93s2.36.93,1.2,2.83-.77,3.94-.24,4.24,6.21-4,1.21-13.94-17.67-4.58-19.68-2.57c0,0-2.08,1.82-3.77.2C233.72,138.22,231.82,152.43,239.63,149.57Z" transform="translate(0 0)"/><path class="cls-10" d="M257.7,190.53V198a3,3,0,0,1-1,2.23l-15.27,13.93,1.74,2.65,20.16-14.62a4.13,4.13,0,0,0,1.67-2.9l1.36-12.95Z" transform="translate(0 0)"/><path class="cls-4" d="M263.73,166.72s4.63,7,6.36,25.3c0,0-7.91,2.56-12.4,1.11S263.73,166.72,263.73,166.72Z" transform="translate(0 0)"/><path class="cls-3" d="M256.86,175.56s-1.81,9.7-1.91,14.26a2.91,2.91,0,0,0,1.91,2.83h0Z" transform="translate(0 0)"/><path class="cls-6" d="M252.9,223.78l-3.37-.45-21.78-12.57a3.05,3.05,0,0,0-2.73.11l-15.43,8.91-2-.27v2h0a.76.76,0,0,0,.47.7L232.7,236.5a3.05,3.05,0,0,0,2.73-.11l16.8-9.71a1.09,1.09,0,0,0,.67-.91h0Z" transform="translate(0 0)"/><path class="cls-3" d="M236.54,215.84l-1.55-.9H218l-8.38,4.84-2-.26v2h0a.78.78,0,0,0,.47.71l24.68,14.26a2.56,2.56,0,0,0,1.41.26Z" transform="translate(0 0)"/><path class="cls-4" d="M208.45,219.63l-.9-.12v2h0a.76.76,0,0,0,.47.7l.43.26Z" transform="translate(0 0)"/><path class="cls-12" d="M233,236.62a3.13,3.13,0,0,0,2.31-.14V233H233Z" transform="translate(0 0)"/><path class="cls-7" d="M232.7,234.48,208,220.22c-.71-.4-.61-1.1.19-1.57L225,209a3,3,0,0,1,2.73-.11l24.67,14.25c.71.41.61,1.1-.19,1.57l-16.77,9.7A3,3,0,0,1,232.7,234.48Z" transform="translate(0 0)"/><path class="cls-2" d="M232.28,232.31l-20.49-11.85c-.58-.33-.51-.92.16-1.3l9-5.06a2.52,2.52,0,0,1,2.27-.1l20.5,11.85c.58.34.51.92-.17,1.31l-9,5.06A2.49,2.49,0,0,1,232.28,232.31Z" transform="translate(0 0)"/><path class="cls-10" d="M226,208.48l-.26,1.71a12.58,12.58,0,0,0,.11,4.37l.3,1.49a2.11,2.11,0,0,0,1.69,1.66h0a1.16,1.16,0,0,0,1.36-.94.2.2,0,0,0,0-.07l.41-3.64s.93,1.22,1.41,1.22-.5-3.65-1.52-5.71S226,208.48,226,208.48Z" transform="translate(0 0)"/><path class="cls-10" d="M234.34,181.42l-2.64,5.24a10.23,10.23,0,0,0-1.09,4l-1.15,17.93-3.48-.09-1.58-20.13a6.91,6.91,0,0,1,.09-1.87l1.79-10.21Z" transform="translate(0 0)"/><path class="cls-6" d="M231.87,235.84l-2.06-2.7L208,220.54a3.05,3.05,0,0,1-1.26-2.42V200.31l-1.25-1.64,1.18-.71h0a.79.79,0,0,1,.85,0l24.67,14.3a3,3,0,0,1,1.27,2.41v19.41a1.1,1.1,0,0,1-.47,1h0Z" transform="translate(0 0)"/><path class="cls-3" d="M216.81,225.63l-1.55-.9L206.78,210v-9.68l-1.25-1.64,1.18-.71h0a.79.79,0,0,1,.85,0l24.67,14.3a2.56,2.56,0,0,1,.94,1.09Z" transform="translate(0 0)"/><path class="cls-4" d="M206.09,199.4l-.55-.71,1.17-.71h0a.81.81,0,0,1,.86.05l.43.26Z" transform="translate(0 0)"/><path class="cls-12" d="M232.46,212.48a3.2,3.2,0,0,1,1,2.08L231.07,216l-1.15-2Z" transform="translate(0 0)"/><path class="cls-4" d="M231.06,213,206.4,198.74c-.71-.41-1.27,0-1.27.95V219.1a3,3,0,0,0,1.26,2.42l24.66,14.27c.71.4,1.27,0,1.27-.95V215.43A3.06,3.06,0,0,0,231.06,213Z" transform="translate(0 0)"/><path class="cls-10" d="M243.19,216.77l-.4.82a5.46,5.46,0,0,1-2.06,2.28l-2.44,1.51a2.44,2.44,0,0,1-2.5.06l-.09-.05a1.48,1.48,0,0,1-.38-2,1.2,1.2,0,0,1,.17-.21l2.57-2.64s-1.42,1.1-1.85.66,1.41-1.91,2.69-2a5.11,5.11,0,0,0,2.56-1.06Z" transform="translate(0 0)"/><path class="cls-4" d="M236.69,157.4s-9.38,10.21-13.17,19.57A19.22,19.22,0,0,0,234.59,185C242.44,187.3,236.69,157.4,236.69,157.4Z" transform="translate(0 0)"/><path class="cls-3" d="M232.82,184.42l1.52-14.7-3.58,13.77A19.07,19.07,0,0,0,232.82,184.42Z" transform="translate(0 0)"/><path class="cls-7" d="M243.72,155.33l-2.52-.7a6.17,6.17,0,0,0,3,2.37c1.76.49,2-1,2-1Z" transform="translate(0 0)"/><path class="cls-2" d="M195.89,132.75a7.07,7.07,0,1,1,7.06-7.06A7.06,7.06,0,0,1,195.89,132.75Zm0-12.58a5.53,5.53,0,1,0,5.52,5.53h0A5.53,5.53,0,0,0,195.89,120.17Z" transform="translate(0 0)"/><path class="cls-4" d="M355,183.66a5,5,0,1,1,5-5h0A5,5,0,0,1,355,183.66Zm0-8.48a3.47,3.47,0,1,0,3.47,3.47,3.47,3.47,0,0,0-3.47-3.47Z" transform="translate(0 0)"/><path class="cls-4" d="M174.42,274.17l-3.4-6.92,6.92-3.4,3.39,6.92ZM173.09,268l2,4.15,4.15-2-2-4.15Z" transform="translate(0 0)"/><path class="cls-4" d="M274.79,167l-3.4-6.91,6.92-3.41,3.4,6.92Zm-1.33-6.21,2,4.15,4.15-2-2-4.15Z" transform="translate(0 0)"/><rect class="cls-4" x="162.55" y="232.59" width="3.54" height="3.54" transform="translate(-86.54 96.54) rotate(-26.18)"/><path class="cls-13" d="M289.74,129.45l-18.9-10.91a1,1,0,0,0-1-.08h0L268,119.52l1.29.47v13.77a3.64,3.64,0,0,0,1.52,2.9l18.06,10.42v1.62l1.86-1.06h0a1.35,1.35,0,0,0,.5-1.21V132.35A3.62,3.62,0,0,0,289.74,129.45Z" transform="translate(0 0)"/><path class="cls-1" d="M287.87,148.63,269,137.72a3.63,3.63,0,0,1-1.51-2.9v-14c0-1.13.7-1.64,1.51-1.16l18.9,10.92a3.61,3.61,0,0,1,1.52,2.9v14C289.39,148.6,288.71,149.11,287.87,148.63Z" transform="translate(0 0)"/><path class="cls-7" d="M275.33,132.88c0,.81-.57,1.14-1.27.71a2.84,2.84,0,0,1-1.28-2.22c0-.81.57-1.13,1.28-.7A2.82,2.82,0,0,1,275.33,132.88Z" transform="translate(0 0)"/><path class="cls-7" d="M279.19,135.11c0,.81-.57,1.14-1.28.7a2.85,2.85,0,0,1-1.27-2.2c0-.81.58-1.15,1.27-.71A2.81,2.81,0,0,1,279.19,135.11Z" transform="translate(0 0)"/><path class="cls-7" d="M283.05,137.34c0,.81-.56,1.14-1.27.71a2.86,2.86,0,0,1-1.27-2.22c0-.81.56-1.13,1.27-.7A2.82,2.82,0,0,1,283.05,137.34Z" transform="translate(0 0)"/><path class="cls-4" d="M159.14,249l-18.57-10.7a1,1,0,0,0-1-.08h0l-1.8,1,1.26.46v13.5a3.59,3.59,0,0,0,1.49,2.82l17.72,10.23v1.58l1.82-1h0a1.34,1.34,0,0,0,.5-1.19V251.84A3.53,3.53,0,0,0,159.14,249Z" transform="translate(0 0)"/><path class="cls-2" d="M157.28,267.81l-18.54-10.7a3.53,3.53,0,0,1-1.49-2.83V240.47c0-1.09.66-1.6,1.49-1.12l18.54,10.7a3.53,3.53,0,0,1,1.49,2.82v13.79C158.77,267.78,158.11,268.29,157.28,267.81Z" transform="translate(0 0)"/><path class="cls-7" d="M145,252.36c0,.8-.56,1.11-1.25.7a2.76,2.76,0,0,1-1.25-2.17c0-.79.56-1.11,1.25-.7A2.74,2.74,0,0,1,145,252.36Z" transform="translate(0 0)"/><path class="cls-7" d="M148.76,254.54c0,.8-.56,1.12-1.25.71a2.84,2.84,0,0,1-1.25-2.17c0-.8.57-1.13,1.25-.71A2.74,2.74,0,0,1,148.76,254.54Z" transform="translate(0 0)"/><path class="cls-7" d="M152.55,256.73c0,.8-.56,1.13-1.25.71a2.77,2.77,0,0,1-1.25-2.16c0-.8.56-1.13,1.25-.71A2.75,2.75,0,0,1,152.55,256.73Z" transform="translate(0 0)"/></svg>