<svg id="_ÎÓÈ_1" data-name="—ÎÓÈ_1" xmlns="http://www.w3.org/2000/svg" viewBox="0 0 449.58 400"><defs><style>.cls-1{fill:#ff2c9c;}.cls-2{fill:#d4ecff;}.cls-3{fill:#396caa;}.cls-4{fill:#5793ce;}.cls-5{fill:#c4d9e8;}.cls-6{fill:#173d7a;}.cls-7{fill:#fff;}.cls-8{fill:#d3d0cf;}.cls-9{fill:#f2f2f2;}.cls-10{fill:#ffc2b0;}.cls-11{fill:#ea9c92;}.cls-12{fill:#274f89;}.cls-13{fill:#d3008d;}</style></defs><path class="cls-1" d="M0,0V86.57a29.08,29.08,0,0,0,27.91,4.12l47.85-18A29.09,29.09,0,0,0,92.69,55.71l18-47.86A28.85,28.85,0,0,0,112.5,0Z" transform="translate(0)"/><path class="cls-2" d="M449.58,301.4l-66.16,41A15.71,15.71,0,0,0,378.31,364l22.22,36h49.05Z" transform="translate(0)"/><path class="cls-3" d="M84.15,329.55A18.47,18.47,0,0,0,71,316.62L32,306.57a18.47,18.47,0,0,0-17.8,5L0,326v74H76.85l13.49-13.76A18.48,18.48,0,0,0,95,368.35Z" transform="translate(0)"/><rect class="cls-4" x="342.41" y="300.83" width="1.91" height="5.54" transform="translate(552.21 -104.39) rotate(75.62)"/><rect class="cls-4" x="339.68" y="303.51" width="1.91" height="5.54" transform="translate(552.77 -99.72) rotate(75.63)"/><rect class="cls-4" x="336.94" y="306.18" width="1.91" height="5.54" transform="translate(553.29 -95.06) rotate(75.63)"/><rect class="cls-4" x="334.2" y="308.85" width="1.91" height="5.54" transform="translate(553.8 -90.4) rotate(75.62)"/><path class="cls-5" d="M227.47,137.13,177.08,166.7c-12.78-3.92-29.06-2.71-39.8,3.59-13.07,7.67-13,20,.19,27.44a40.52,40.52,0,0,0,9.92,3.89,54.23,54.23,0,0,0,7.88,1.36c10.48,1,21.66-.85,29.73-5.58,9.76-5.73,12.18-14,7.28-21l6.95-4.08-.19-4.41,7.32,0-.19-4.14,7.32-.05-.18-4.13,7.31,0-.18-4.14,7.32,0-.19-4.13,7.82-.06,2.38-1.4,2.63-10.85ZM156.56,193.7a13.67,13.67,0,0,1-12.38.09c-3.43-1.95-3.45-5.14-.05-7.14a13.67,13.67,0,0,1,12.38-.09C159.94,188.51,160,191.71,156.56,193.7Z" transform="translate(0)"/><path class="cls-5" d="M255,324.17l-68-39.08c-4.58-2.64-4-7.26,1.28-10.31l66-38.08c5.29-3,13.28-3.39,17.86-.74l68,39.07c4.58,2.65,4,7.26-1.28,10.31l-66,38.09C267.61,326.48,259.62,326.81,255,324.17Z" transform="translate(0)"/><path class="cls-4" d="M334.72,235.57,323,228.78l43.33-25c2-1.18,2-3.1,0-4.28L322,173.93a8.22,8.22,0,0,0-7.42,0l-43.33,25-11.75-6.79,43.33-25c8.52-4.92,22.39-4.92,30.92,0l44.26,25.55c8.52,4.92,8.52,12.93,0,17.85Z" transform="translate(0)"/><path class="cls-2" d="M353.68,238.55c0-6.28-3.81-13.57-8.53-16.29l-78.49-45.32c-2.11-1.22-4-1.31-5.53-.48h0l-93.72,54.46L258,299.22l92.33-53.59a4,4,0,0,0,.82-.48h0C352.73,244,353.68,241.69,353.68,238.55Z" transform="translate(0)"/><path class="cls-6" d="M258,299.22l92.33-53.59a4,4,0,0,0,.82-.48h0c1.54-1.17,2.49-3.46,2.49-6.6a20.93,20.93,0,0,0-2.29-9.07L246.13,290.25Z" transform="translate(0)"/><path class="cls-4" d="M252.14,299l-78.5-45.31c-4.71-2.72-8.53-10-8.53-16.3h0c0-6.29,3.82-9.17,8.53-6.45l78.5,45.32c4.71,2.72,8.53,10,8.53,16.3h0C260.67,298.81,256.85,301.69,252.14,299Z" transform="translate(0)"/><path class="cls-7" d="M240.38,283.69l-9.44-5.44a4.09,4.09,0,0,1-1.7-3.25h0c0-1.25.76-1.83,1.7-1.29l9.44,5.45a4.06,4.06,0,0,1,1.7,3.25h0C242.08,283.66,241.32,284.23,240.38,283.69Z" transform="translate(0)"/><polygon class="cls-3" points="169.52 124.1 185.65 133.26 202.1 123.61 202.06 119.41 201.92 119.49 201.9 119.2 209.22 119.14 209.18 115.01 216.35 114.96 216.31 110.82 223.49 110.77 223.45 106.64 230.62 106.59 230.58 102.45 238.25 102.4 240.64 101 243.27 90.15 243.22 85.95 241.95 89.97 230.34 88.42 169.52 124.1"/><polygon class="cls-2" points="185.6 129.06 202.06 119.41 201.86 115 209.18 114.94 208.99 110.81 216.31 110.76 216.13 106.63 223.44 106.57 223.26 102.44 230.58 102.39 230.39 98.25 238.21 98.2 240.59 96.8 243.22 85.95 230.3 84.22 169.47 119.9 185.6 129.06"/><path class="cls-3" d="M196.56,122.64a22.64,22.64,0,0,0-7.48-6.45,38.51,38.51,0,0,0-7.72-3.26l-11.89,7,16.13,9.17Z" transform="translate(0)"/><polygon class="cls-4" points="242.78 87.77 243.22 85.95 241.05 85.66 189.66 115.81 192.37 117.34 242.78 87.77"/><polygon class="cls-8" points="130.54 137.35 130.36 131.38 132.27 135.41 130.54 137.35"/><path class="cls-3" d="M140.47,150.79c13.18,7.48,34.46,7.33,47.53-.34,6.55-3.84,9.79-8.85,9.74-13.83h0l-.18-6.33-1.08,1.2c-1.51-3.12-4.4-6.06-8.68-8.48-13.17-7.49-34.45-7.34-47.52.33S127.3,143.3,140.47,150.79Zm19-11.17c3.43,1.95,3.45,5.14.05,7.14a13.67,13.67,0,0,1-12.38.09c-3.43-1.95-3.45-5.15-.05-7.15A13.71,13.71,0,0,1,159.51,139.62Z" transform="translate(0)"/><path class="cls-9" d="M140.3,144.82c13.17,7.48,34.45,7.33,47.52-.33s13-20-.19-27.44-34.46-7.34-47.53.33S127.12,137.33,140.3,144.82Zm19-11.17c3.43,1.95,3.45,5.15,0,7.14a13.65,13.65,0,0,1-12.37.09c-3.43-1.95-3.46-5.15,0-7.14A13.65,13.65,0,0,1,159.33,133.65Z" transform="translate(0)"/><path class="cls-4" d="M155.57,148.09a13.57,13.57,0,0,1-8.39-1.24c-2.46-1.4-3.15-3.44-2.1-5.22l-6-4.73-6.21-7c-4.8,7-2.28,15.3,7.57,20.9a41.7,41.7,0,0,0,14.74,4.68Z" transform="translate(0)"/><path class="cls-2" d="M140.3,144.82a40.29,40.29,0,0,0,9.91,3.89,54.47,54.47,0,0,0,7.88,1.36c10.48,1,21.67-.85,29.73-5.58,13.07-7.67,13-20-.19-27.44s-34.46-7.34-47.53.33S127.12,137.33,140.3,144.82Zm19-11.17c3.43,1.95,3.45,5.15,0,7.14a13.65,13.65,0,0,1-12.37.09c-3.43-1.95-3.46-5.15,0-7.14A13.65,13.65,0,0,1,159.33,133.65Z" transform="translate(0)"/><path class="cls-3" d="M134.07,131.22c.64-3.82,3.48-7.56,8.52-10.52,11.63-6.82,30.56-7,42.29-.29,5.82,3.3,8.77,7.67,8.83,12.06.84-5-2.06-10.12-8.69-13.89-11.73-6.66-30.66-6.53-42.29.3C136.88,122.31,134,126.78,134.07,131.22Z" transform="translate(0)"/><path class="cls-3" d="M126.14,185.53a13.16,13.16,0,0,1-6.59-1.7c-4.72-2.68-7.35-8.07-7.4-15.16-.09-12.95,8.92-28.82,20.09-35.37,6.12-3.59,12.09-4.09,16.81-1.41a13.18,13.18,0,0,1,4.89,4.89,20.36,20.36,0,0,1,2.51,10.27c.09,12.95-8.92,28.82-20.09,35.37A20.4,20.4,0,0,1,126.14,185.53ZM142.45,135a15.7,15.7,0,0,0-7.8,2.45c-9.87,5.78-17.83,19.8-17.75,31.23,0,5.33,1.81,9.26,5,11.07s7.46,1.32,12-1.38c9.87-5.78,17.83-19.8,17.75-31.23a15.87,15.87,0,0,0-1.86-7.91h0a8.25,8.25,0,0,0-7.39-4.23Z" transform="translate(0)"/><path class="cls-2" d="M148.65,145.46l9.38,2.29,1.35-7a13.65,13.65,0,0,1-12.37.09Z" transform="translate(0)"/><path class="cls-2" d="M140.3,144.82a40.29,40.29,0,0,0,9.91,3.89,54.47,54.47,0,0,0,7.88,1.36c10.48,1,21.67-.85,29.73-5.58l-38.2-.86Z" transform="translate(0)"/><path class="cls-3" d="M154.41,149.64a55.46,55.46,0,0,1-8.3-2.14v5.86a45.31,45.31,0,0,0,8.2,2.11C163.06,156.62,154.41,149.64,154.41,149.64Z" transform="translate(0)"/><path class="cls-4" d="M148.32,148.21a39.27,39.27,0,0,1-5.4-2c-5.12-2.4,1.35,6.47,1.35,6.47s1.74.69,4,1.4Z" transform="translate(0)"/><polygon class="cls-4" points="244.16 251.19 227.44 261.97 219.31 260.65 239.18 251.04 244.16 251.19"/><path class="cls-6" d="M224,305.62s-4.81-2.43-7.77,1.19S209,319,208.86,324.72s4.57,5.38,7.36,4,10.94-13.2,11.44-15.51-.59-5.45-1.37-6.07S224,305.62,224,305.62Z" transform="translate(0)"/><path class="cls-4" d="M225,304.46l.22,5a2.8,2.8,0,0,1-1.41,2.59,5.55,5.55,0,0,1-3.71.58c-3.63-.58-3.95-1.62-4.21-6.61S225,304.46,225,304.46Z" transform="translate(0)"/><path class="cls-6" d="M206.33,296s-4.82-2.43-7.78,1.18-7.18,12.15-7.31,17.92,4.56,5.38,7.35,4S209.54,306,210,303.64s-.58-5.45-1.37-6.07S206.33,296,206.33,296Z" transform="translate(0)"/><path class="cls-4" d="M207.38,294.87l.22,5a2.82,2.82,0,0,1-1.41,2.6,5.55,5.55,0,0,1-3.71.58c-3.63-.59-3.95-1.62-4.21-6.61S207.38,294.87,207.38,294.87Z" transform="translate(0)"/><path class="cls-2" d="M250.34,203.29c-1.43-23.19-25.11,3.41-25.11,3.41L209,222.59l-14.6,16a14.41,14.41,0,0,0-3.63,11.56l5.91,45a4.41,4.41,0,0,0,4.43,3.84,15.69,15.69,0,0,0,2.19-.19A5.49,5.49,0,0,0,208.2,293l-1.08-42.06,30.65-18.48S251.76,226.47,250.34,203.29Z" transform="translate(0)"/><path class="cls-4" d="M218.83,243l-4.36-1.6c-.1,0-7.42,7.08-7.35,9.55L210.4,252l8.24-8Z" transform="translate(0)"/><path class="cls-4" d="M244.16,251.19s18.22-10.4,20.4-14.76c.85-1.71,2.18-3.5-3.14-6.08l-24.29,17.32,1.05,6Z" transform="translate(0)"/><path class="cls-2" d="M268,212.24c-1.52-23.18-25.11,3.41-25.11,3.41l-16.21,15.89-14.6,16a14.39,14.39,0,0,0-3.62,11.56l5.9,45a4.42,4.42,0,0,0,4.43,3.85,15.72,15.72,0,0,0,2.19-.2,5.49,5.49,0,0,0,4.88-5.83l-1.08-42.05,30.66-18.48S269.35,233.43,268,212.24Z" transform="translate(0)"/><path class="cls-4" d="M254,137.69c18,7.45,17.6,18.06,17.6,18.06s-3.52,38.92-2.32,64.91c.5,10.86-57.72,11.69-49-17.3,10.24-34.17,6.4-61.84,11.19-66S249.31,135.77,254,137.69Z" transform="translate(0)"/><path class="cls-10" d="M259.73,147.11c-.94,3.64-5.72,5.56-10.67,4.29s-8.21-5.27-7.27-8.92,5.72-5.56,10.67-4.29S260.67,143.46,259.73,147.11Z" transform="translate(0)"/><path class="cls-7" d="M252.09,152.65a13.24,13.24,0,0,1-3.25-.42,11.9,11.9,0,0,1-6.29-3.86,6.84,6.84,0,0,1-1.59-6.1c1-4.1,6.31-6.3,11.71-4.91a11.93,11.93,0,0,1,6.3,3.86,6.88,6.88,0,0,1,1.59,6.1C259.72,150.58,256.21,152.65,252.09,152.65Zm-2.7-14c-3.34,0-6.13,1.55-6.77,4a5.21,5.21,0,0,0,1.26,4.59,10.29,10.29,0,0,0,5.39,3.28c4.49,1.15,8.81-.5,9.63-3.68a5.24,5.24,0,0,0-1.26-4.59,10.32,10.32,0,0,0-5.4-3.28A11.42,11.42,0,0,0,249.39,138.66Z" transform="translate(0)"/><path class="cls-10" d="M246.75,136.88s.16.72-.16,6.41c-.09,1.79,6.17,3.46,7.79,1.85s1-3.31,1.36-9.4S246.75,136.88,246.75,136.88Z" transform="translate(0)"/><path class="cls-11" d="M255.74,135.74s-1.54,5.65-9.15,7.81l.12-5.13Z" transform="translate(0)"/><path class="cls-10" d="M260.56,121.4a13.82,13.82,0,1,1-16.85-9.92A13.82,13.82,0,0,1,260.56,121.4Z" transform="translate(0)"/><path class="cls-11" d="M250.35,125.37s-7.61,3.26-12.88,3.3-4.11-4.38-4.11-4.38L249,122Z" transform="translate(0)"/><path class="cls-1" d="M235.9,126.23s6.63-2.82,12.44-1.64a6,6,0,0,1,3.52,2.09,2.15,2.15,0,0,0,1.06.77c1,.23,2.72-4,4.73-4.15s3.34,1.32,1.69,4-1.08,5.57-.33,6,8.78-5.72,1.7-19.73-25-6.47-27.84-3.63c0,0-2.94,2.57-5.34.28C227.53,110.17,224.85,130.28,235.9,126.23Z" transform="translate(0)"/><path class="cls-10" d="M261.47,184.18V194.7a4.27,4.27,0,0,1-1.39,3.16l-21.61,19.7,2.46,3.75,28.53-20.69a5.78,5.78,0,0,0,2.36-4.09l1.93-18.33Z" transform="translate(0)"/><path class="cls-4" d="M270,150.49s6.55,9.86,9,35.8c0,0-11.19,3.62-17.55,1.57S270,150.49,270,150.49Z" transform="translate(0)"/><path class="cls-3" d="M260.28,163s-2.57,13.73-2.71,20.18a4.13,4.13,0,0,0,2.71,4h0Z" transform="translate(0)"/><path class="cls-6" d="M254.67,231.23l-4.77-.63-30.82-17.79a4.27,4.27,0,0,0-3.85.16l-21.84,12.6-2.89-.38v2.87h0a1.11,1.11,0,0,0,.67,1l34.92,20.17a4.29,4.29,0,0,0,3.86-.16l23.78-13.73a1.54,1.54,0,0,0,.94-1.29h0Z" transform="translate(0)"/><path class="cls-3" d="M231.52,220l-2.19-1.27H205.25l-11.86,6.85-2.89-.38v2.87h0a1.11,1.11,0,0,0,.67,1l34.92,20.17a3.61,3.61,0,0,0,2,.37Z" transform="translate(0)"/><path class="cls-4" d="M191.78,225.36l-1.28-.17v2.87h0a1.11,1.11,0,0,0,.67,1l.61.36Z" transform="translate(0)"/><path class="cls-12" d="M226.44,249.4a4.47,4.47,0,0,0,3.28-.2v-4.89h-3.28Z" transform="translate(0)"/><path class="cls-7" d="M226.09,246.37,191.17,226.2c-1-.57-.87-1.56.27-2.22l23.79-13.73a4.27,4.27,0,0,1,3.85-.16L254,230.26c1,.57.86,1.56-.28,2.22L230,246.21A4.29,4.29,0,0,1,226.09,246.37Z" transform="translate(0)"/><path class="cls-2" d="M225.5,243.31l-29-16.77c-.82-.47-.72-1.3.23-1.85l12.74-7.16a3.58,3.58,0,0,1,3.21-.14l29,16.77c.82.48.72,1.3-.23,1.85l-12.74,7.17A3.55,3.55,0,0,1,225.5,243.31Z" transform="translate(0)"/><path class="cls-10" d="M216.58,209.59l-.37,2.41a18.08,18.08,0,0,0,.16,6.18l.43,2.12a3,3,0,0,0,2.39,2.35h0a1.66,1.66,0,0,0,1.94-1.44l.57-5.15s1.32,1.73,2,1.73-.71-5.16-2.15-8.08S216.58,209.59,216.58,209.59Z" transform="translate(0)"/><path class="cls-10" d="M228.41,171.29l-3.74,7.42a14.5,14.5,0,0,0-1.54,5.63l-1.62,25.37-4.93-.12-2.24-28.49a10.16,10.16,0,0,1,.13-2.64L217,164Z" transform="translate(0)"/><path class="cls-6" d="M224.91,248.3,222,244.48l-30.8-17.83a4.3,4.3,0,0,1-1.78-3.42l0-25.21-1.77-2.32,1.66-1h0a1.14,1.14,0,0,1,1.21.07L225.43,215a4.28,4.28,0,0,1,1.79,3.42l0,27.46a1.56,1.56,0,0,1-.66,1.46h0Z" transform="translate(0)"/><path class="cls-3" d="M203.61,233.85l-2.19-1.27-12-20.86,0-13.7-1.77-2.32,1.66-1h0a1.14,1.14,0,0,1,1.21.07L225.43,215a3.62,3.62,0,0,1,1.32,1.54Z" transform="translate(0)"/><path class="cls-4" d="M188.44,196.73l-.78-1,1.66-1h0a1.14,1.14,0,0,1,1.21.07l.61.36Z" transform="translate(0)"/><path class="cls-12" d="M225.75,215.24a4.56,4.56,0,0,1,1.46,2.94l-3.42,2-1.63-2.84Z" transform="translate(0)"/><path class="cls-4" d="M223.77,216l-34.9-20.2c-1-.58-1.79,0-1.79,1.35l0,27.46a4.27,4.27,0,0,0,1.78,3.42l34.9,20.2c1,.57,1.79,0,1.79-1.35l0-27.46A4.29,4.29,0,0,0,223.77,216Z" transform="translate(0)"/><path class="cls-10" d="M240.93,221.31l-.56,1.16a7.72,7.72,0,0,1-2.92,3.23L234,227.84a3.46,3.46,0,0,1-3.54.08l-.12-.07a2.09,2.09,0,0,1-.3-3.2l3.63-3.73s-2,1.56-2.61.93c-.42-.46,2-2.7,3.81-2.78a7.19,7.19,0,0,0,3.61-1.51Z" transform="translate(0)"/><path class="cls-4" d="M231.74,137.3S218.46,151.75,213.1,165a27.19,27.19,0,0,0,15.66,11.4C239.88,179.61,231.74,137.3,231.74,137.3Z" transform="translate(0)"/><path class="cls-3" d="M226.26,175.54l2.15-20.8-5.07,19.49A29.17,29.17,0,0,0,226.26,175.54Z" transform="translate(0)"/><path class="cls-7" d="M241.69,134.38l-3.57-1a8.63,8.63,0,0,0,4.19,3.36c2.49.69,2.88-1.42,2.88-1.42Z" transform="translate(0)"/><path class="cls-2" d="M174,102.43a10,10,0,1,1,10-10A10,10,0,0,1,174,102.43Zm0-17.81a7.82,7.82,0,1,0,7.81,7.82A7.83,7.83,0,0,0,174,84.62Z" transform="translate(0)"/><path class="cls-4" d="M399.13,174.47a7.09,7.09,0,1,1,7.09-7.09A7.1,7.1,0,0,1,399.13,174.47Zm0-12a4.91,4.91,0,1,0,4.91,4.91A4.91,4.91,0,0,0,399.13,162.47Z" transform="translate(0)"/><path class="cls-4" d="M143.63,302.53l-4.81-9.79,9.78-4.81,4.81,9.79Zm-1.89-8.79,2.88,5.87,5.87-2.89-2.88-5.87Z" transform="translate(0)"/><path class="cls-4" d="M285.65,150.85l-4.81-9.78,9.79-4.82,4.81,9.79Zm-1.89-8.79,2.89,5.87,5.87-2.88-2.89-5.88Z" transform="translate(0)"/><rect class="cls-4" x="126.84" y="243.7" width="5.01" height="5.01" transform="translate(-95.36 82.32) rotate(-26.18)"/><path class="cls-13" d="M306.8,97.75,280.06,82.32a1.34,1.34,0,0,0-1.38-.11v0l-2.59,1.5,1.82.66v19.48a5.16,5.16,0,0,0,2.15,4.11l25.56,14.75V125l2.62-1.51h0a1.9,1.9,0,0,0,.72-1.71V101.86A5.16,5.16,0,0,0,306.8,97.75Z" transform="translate(0)"/><path class="cls-1" d="M304.16,124.9l-26.74-15.44a5.16,5.16,0,0,1-2.15-4.11V85.47c0-1.59,1-2.32,2.15-1.63l26.74,15.44a5.13,5.13,0,0,1,2.15,4.11v19.88C306.31,124.85,305.35,125.58,304.16,124.9Z" transform="translate(0)"/><path class="cls-7" d="M286.41,102.61c0,1.15-.8,1.61-1.8,1a4,4,0,0,1-1.8-3.13c0-1.15.8-1.61,1.8-1A4,4,0,0,1,286.41,102.61Z" transform="translate(0)"/><path class="cls-7" d="M291.88,105.76c0,1.15-.81,1.62-1.81,1a4,4,0,0,1-1.8-3.12c0-1.15.81-1.62,1.8-1A4,4,0,0,1,291.88,105.76Z" transform="translate(0)"/><path class="cls-7" d="M297.34,108.92c0,1.15-.8,1.61-1.8,1a4,4,0,0,1-1.8-3.13c0-1.15.8-1.61,1.8-1A4,4,0,0,1,297.34,108.92Z" transform="translate(0)"/><path class="cls-4" d="M122,266.91,95.73,251.76a1.36,1.36,0,0,0-1.36-.11h0l-2.55,1.47,1.79.65v19.1a5.06,5.06,0,0,0,2.11,4l25.07,14.47v2.24l2.57-1.48h0a1.89,1.89,0,0,0,.71-1.68V270.94A5,5,0,0,0,122,266.91Z" transform="translate(0)"/><path class="cls-2" d="M119.37,293.53,93.14,278.39a5,5,0,0,1-2.11-4V254.85c0-1.55.94-2.27,2.11-1.59l26.23,15.14a5,5,0,0,1,2.11,4v19.51C121.48,293.49,120.54,294.21,119.37,293.53Z" transform="translate(0)"/><path class="cls-7" d="M102,271.67c0,1.13-.79,1.58-1.77,1a3.9,3.9,0,0,1-1.77-3.07c0-1.12.79-1.58,1.77-1A3.92,3.92,0,0,1,102,271.67Z" transform="translate(0)"/><path class="cls-7" d="M107.32,274.76c0,1.13-.79,1.59-1.77,1a4,4,0,0,1-1.77-3.07c0-1.13.8-1.59,1.77-1A3.9,3.9,0,0,1,107.32,274.76Z" transform="translate(0)"/><path class="cls-7" d="M112.68,277.86c0,1.13-.79,1.59-1.77,1a3.93,3.93,0,0,1-1.77-3.06c0-1.13.8-1.59,1.77-1A3.92,3.92,0,0,1,112.68,277.86Z" transform="translate(0)"/></svg>