<svg xmlns="http://www.w3.org/2000/svg" viewBox="0 0 444.33 84.41"><defs><style>.cls-1{fill:#005bad;}.cls-2,.cls-3{fill:#2f80ed;}.cls-3{stroke:#2f80ed;stroke-miterlimit:10;stroke-width:2px;}</style></defs><g id="Layer_2" data-name="Layer 2"><g id="Layer_1-2" data-name="Layer 1"><rect class="cls-1" x="34.97" y="1.46" width="23.78" height="82.71" rx="11.23"/><rect class="cls-1" x="69.7" y="1.46" width="23.78" height="82.71" rx="11.23"/><rect class="cls-2" x="17.61" y="30.32" width="93.23" height="23.78" rx="11.23" transform="matrix(0.5, -0.87, 0.87, 0.5, -4.44, 76.72)"/><rect class="cls-2" x="-17.12" y="30.32" width="93.23" height="23.78" rx="11.23" transform="translate(-21.8 46.65) rotate(-60)"/><rect class="cls-2" x="63.46" y="49.58" width="48.75" height="23.78" rx="11.23" transform="translate(-9.31 106.8) rotate(-60)"/><path class="cls-3" d="M138,57.15,130.15,26V59.75A6.19,6.19,0,0,1,128.9,64a4.6,4.6,0,0,1-6.59,0A6.1,6.1,0,0,1,121,59.75V21c0-2.14.55-3.58,1.67-4.33a8,8,0,0,1,4.5-1.12h3.07a11.57,11.57,0,0,1,4,.51,3.36,3.36,0,0,1,1.85,1.8,29,29,0,0,1,1.37,4.24l7.11,26.8,7.11-26.8a28.07,28.07,0,0,1,1.36-4.24A3.35,3.35,0,0,1,155,16.1a11.47,11.47,0,0,1,4-.51h3.07a8.07,8.07,0,0,1,4.51,1.12c1.11.75,1.66,2.19,1.66,4.33V59.75A6.14,6.14,0,0,1,167,64a4.27,4.27,0,0,1-3.35,1.4,4.19,4.19,0,0,1-3.24-1.4,6.09,6.09,0,0,1-1.27-4.21V26l-7.84,31.17c-.51,2-.93,3.51-1.25,4.46a6.23,6.23,0,0,1-1.79,2.58,5.2,5.2,0,0,1-3.6,1.17,5.44,5.44,0,0,1-2.94-.75,5.37,5.37,0,0,1-1.87-1.92,10.49,10.49,0,0,1-1.05-2.59C138.52,59.16,138.26,58.17,138,57.15Z"/><path class="cls-3" d="M203.21,49.07H185.39a12.12,12.12,0,0,0,1.25,5.48,8.38,8.38,0,0,0,7.7,4.77,11.09,11.09,0,0,0,3-.38,9.68,9.68,0,0,0,2.62-1.21A19.26,19.26,0,0,0,202.28,56c.71-.62,1.64-1.47,2.77-2.53a3,3,0,0,1,2-.61,3.3,3.3,0,0,1,2.27.77,2.75,2.75,0,0,1,.87,2.17,5.9,5.9,0,0,1-1,2.89,11.54,11.54,0,0,1-2.92,3.17,16.81,16.81,0,0,1-4.9,2.52,21.11,21.11,0,0,1-6.8,1q-8.78,0-13.65-5t-4.87-13.58a22.67,22.67,0,0,1,1.2-7.49,16.57,16.57,0,0,1,3.5-5.93,15.33,15.33,0,0,1,5.68-3.79,20.35,20.35,0,0,1,7.47-1.32,17.76,17.76,0,0,1,9.17,2.26,14.79,14.79,0,0,1,5.72,5.82,15.3,15.3,0,0,1,1.9,7.28c0,2.29-.65,3.78-2,4.45A12.21,12.21,0,0,1,203.21,49.07ZM185.39,43.9h16.52q-.33-4.68-2.52-7a7.54,7.54,0,0,0-5.76-2.32A7.29,7.29,0,0,0,188,36.94,11.75,11.75,0,0,0,185.39,43.9Z"/><path class="cls-3" d="M243.37,60.15v-.9a23.09,23.09,0,0,1-3.62,3.42,13.91,13.91,0,0,1-3.88,2,14.71,14.71,0,0,1-4.55.68A13.48,13.48,0,0,1,225.26,64a14.17,14.17,0,0,1-4.82-4,18,18,0,0,1-3.09-6,25.82,25.82,0,0,1-1-7.51q0-8.55,4.17-13.32a13.88,13.88,0,0,1,11-4.77,14.74,14.74,0,0,1,6.64,1.35,18.51,18.51,0,0,1,5.28,4.16V20.43a6.75,6.75,0,0,1,1.12-4.23,3.78,3.78,0,0,1,3.18-1.44,4,4,0,0,1,3.19,1.32A5.84,5.84,0,0,1,252,20V60.15a5.6,5.6,0,0,1-1.2,3.91,4.29,4.29,0,0,1-6.2,0A5.58,5.58,0,0,1,243.37,60.15ZM225.44,46.77a15.7,15.7,0,0,0,1.15,6.31A8.81,8.81,0,0,0,229.75,57a7.77,7.77,0,0,0,4.37,1.32,8.1,8.1,0,0,0,4.39-1.25,8.69,8.69,0,0,0,3.17-3.84,15.53,15.53,0,0,0,1.19-6.46,15.1,15.1,0,0,0-1.19-6.26,9.39,9.39,0,0,0-3.2-4,7.63,7.63,0,0,0-4.43-1.39,7.44,7.44,0,0,0-4.47,1.42,9.11,9.11,0,0,0-3.05,4.07A16.06,16.06,0,0,0,225.44,46.77Z"/><path class="cls-3" d="M266.8,34l5.94,20.36,5.41-18.93c.58-2,1-3.33,1.28-4.05A5.19,5.19,0,0,1,281,29.3a5.57,5.57,0,0,1,6.34,0A5.51,5.51,0,0,1,289,31.43c.31.77.75,2.1,1.3,4l5.41,18.93,6-20.36c.4-1.47.72-2.53,1-3.19a4.16,4.16,0,0,1,1.23-1.74,3.71,3.71,0,0,1,2.5-.75,4,4,0,0,1,2.84,1.14,3.54,3.54,0,0,1,1.2,2.67,13.94,13.94,0,0,1-1,4.24L302,58.18c-.65,1.85-1.15,3.19-1.51,4a5.84,5.84,0,0,1-1.68,2.2,5.64,5.64,0,0,1-6.41-.06,6.18,6.18,0,0,1-1.75-2.54c-.38-1-.79-2.3-1.24-3.91l-5.2-17.75-5,17.75A22.09,22.09,0,0,1,277,63.47q-1.17,1.89-4.11,1.89a5.17,5.17,0,0,1-2.55-.58,5,5,0,0,1-1.76-1.67,12.8,12.8,0,0,1-1.23-2.57c-.36-1-.64-1.78-.84-2.36l-7.37-21.82a15.23,15.23,0,0,1-1.1-4.24,3.65,3.65,0,0,1,1.17-2.64A3.88,3.88,0,0,1,262,28.31a3.34,3.34,0,0,1,3.07,1.29A19.08,19.08,0,0,1,266.8,34Z"/><path class="cls-3" d="M321.3,24.07a4.79,4.79,0,0,1-3.25-1.17,4.12,4.12,0,0,1-1.35-3.3,4.13,4.13,0,0,1,1.38-3.19,4.69,4.69,0,0,1,3.22-1.25,4.76,4.76,0,0,1,3.14,1.14,4,4,0,0,1,1.37,3.3,4.18,4.18,0,0,1-1.34,3.29A4.6,4.6,0,0,1,321.3,24.07Zm4.51,9.42V59.82a5.89,5.89,0,0,1-1.3,4.14,4.34,4.34,0,0,1-3.31,1.4A4.12,4.12,0,0,1,318,63.93a6,6,0,0,1-1.25-4.11V33.75A5.82,5.82,0,0,1,318,29.68a4.21,4.21,0,0,1,3.25-1.37,4.38,4.38,0,0,1,3.31,1.37A5.29,5.29,0,0,1,325.81,33.49Z"/><path class="cls-3" d="M343.5,33.35v1.1a15.88,15.88,0,0,1,5.26-4.65,14,14,0,0,1,6.56-1.49,13,13,0,0,1,6.44,1.57A10,10,0,0,1,366,34.32a10.35,10.35,0,0,1,1.16,3.6,37.07,37.07,0,0,1,.27,4.94v17A6.08,6.08,0,0,1,366.18,64a4.16,4.16,0,0,1-3.25,1.4,4.23,4.23,0,0,1-3.31-1.43,6.05,6.05,0,0,1-1.27-4.11V44.63a15.1,15.1,0,0,0-1.25-6.89c-.83-1.59-2.5-2.39-5-2.39a7.41,7.41,0,0,0-4.44,1.46,8.35,8.35,0,0,0-2.94,4,28.8,28.8,0,0,0-.66,7.61V59.82A5.92,5.92,0,0,1,342.78,64a4.33,4.33,0,0,1-3.32,1.38,4.16,4.16,0,0,1-3.24-1.43A6.05,6.05,0,0,1,335,59.82V33.49a5.7,5.7,0,0,1,1.14-3.89,3.92,3.92,0,0,1,3.1-1.29,4.19,4.19,0,0,1,2.17.57,4,4,0,0,1,1.55,1.7A6,6,0,0,1,343.5,33.35Z"/><path class="cls-3" d="M399.21,61.19l-8-13.22-4.94,4.67v7.25a5.57,5.57,0,0,1-1.38,4,4.34,4.34,0,0,1-3.19,1.42,4.13,4.13,0,0,1-3.3-1.4,6.23,6.23,0,0,1-1.2-4.14V21a7.68,7.68,0,0,1,1.16-4.62,3.89,3.89,0,0,1,3.34-1.59A4.19,4.19,0,0,1,385,16.2a6.34,6.34,0,0,1,1.23,4.23v22.1l10.25-10.75a26.36,26.36,0,0,1,2.9-2.73,4,4,0,0,1,2.44-.74,3.92,3.92,0,0,1,2.84,1.09,3.62,3.62,0,0,1,1.13,2.72q0,2-3.7,5.34l-4.84,4.44,9.34,14.68c.69,1.09,1.19,1.92,1.49,2.49a3.49,3.49,0,0,1,.45,1.62,4.79,4.79,0,0,1-1.19,3.42,4.11,4.11,0,0,1-3.12,1.25,3.48,3.48,0,0,1-2.57-.9A21.6,21.6,0,0,1,399.21,61.19Z"/><path class="cls-3" d="M443.33,53.45A10.57,10.57,0,0,1,436.07,64a24.38,24.38,0,0,1-8.73,1.38,21.32,21.32,0,0,1-8.41-1.5,12.19,12.19,0,0,1-5.17-3.76,7.58,7.58,0,0,1-1.67-4.52A3.51,3.51,0,0,1,413.16,53a3.66,3.66,0,0,1,2.7-1.07,3.22,3.22,0,0,1,2.21.7,7.69,7.69,0,0,1,1.46,2,8.76,8.76,0,0,0,8.68,4.84,7.63,7.63,0,0,0,4.49-1.22,3.41,3.41,0,0,0,1.75-2.78,3.8,3.8,0,0,0-1.82-3.51,22.73,22.73,0,0,0-6-2.1A50.88,50.88,0,0,1,419,47.39,12.66,12.66,0,0,1,414.26,44a7.76,7.76,0,0,1-1.77-5.17,9.15,9.15,0,0,1,1.64-5.18A11.23,11.23,0,0,1,419,29.76a18.58,18.58,0,0,1,7.69-1.45,25.25,25.25,0,0,1,6.36.74,15.75,15.75,0,0,1,4.71,2,9.81,9.81,0,0,1,2.87,2.73,5.4,5.4,0,0,1,1,2.94,3.39,3.39,0,0,1-1.05,2.57,4.16,4.16,0,0,1-3,1,3.66,3.66,0,0,1-2.38-.8,15.92,15.92,0,0,1-2.26-2.4,8.11,8.11,0,0,0-2.43-2.14,7.74,7.74,0,0,0-3.81-.8,7.45,7.45,0,0,0-4.1,1.05,3.08,3.08,0,0,0-1.64,2.62,2.83,2.83,0,0,0,1.2,2.35,9.88,9.88,0,0,0,3.24,1.52q2,.6,5.61,1.47a29.84,29.84,0,0,1,6.92,2.47A11.58,11.58,0,0,1,442,49,7.54,7.54,0,0,1,443.33,53.45Z"/></g></g></svg>